M48
; DRILL file {KiCad 5.1.7+dfsg1-1~bpo10+1} date Wed Nov 11 10:48:03 2020
; FORMAT={-:-/ absolute / inch / decimal}
; #@! TF.CreationDate,2020-11-11T10:48:03+09:00
; #@! TF.GenerationSoftware,Kicad,Pcbnew,5.1.7+dfsg1-1~bpo10+1
FMAT,2
INCH
T1C0.0394
T2C0.0402
T3C0.0413
T4C0.0591
%
G90
G05
T1
X4.1Y-4.7
X4.2Y-4.7
X4.3Y-4.7
X4.4Y-4.7
X4.5Y-4.7
X4.6Y-4.7
X4.7Y-4.7
X4.8Y-4.7
T2
X4.95Y-4.9
X5.05Y-4.9
T3
X4.1104Y-4.1423
X4.1104Y-4.2423
X4.1104Y-4.3423
X4.1104Y-4.4423
X4.2104Y-4.1423
X4.2104Y-4.2423
X4.2104Y-4.3423
X4.2104Y-4.4423
T4
X4.0Y-3.95
X4.15Y-5.15
X4.75Y-5.15
T0
M30
