G04 #@! TF.GenerationSoftware,KiCad,Pcbnew,5.1.7+dfsg1-1~bpo10+1*
G04 #@! TF.CreationDate,2020-11-11T10:24:14+09:00*
G04 #@! TF.ProjectId,MPU6050+ESP01_1,4d505536-3035-4302-9b45-535030315f31,rev?*
G04 #@! TF.SameCoordinates,Original*
G04 #@! TF.FileFunction,Legend,Top*
G04 #@! TF.FilePolarity,Positive*
%FSLAX46Y46*%
G04 Gerber Fmt 4.6, Leading zero omitted, Abs format (unit mm)*
G04 Created by KiCad (PCBNEW 5.1.7+dfsg1-1~bpo10+1) date 2020-11-11 10:24:14*
%MOMM*%
%LPD*%
G01*
G04 APERTURE LIST*
%ADD10C,0.150000*%
%ADD11C,0.100000*%
%ADD12C,0.200000*%
%ADD13C,0.015000*%
G04 APERTURE END LIST*
D10*
X123190000Y-117919500D02*
X123190000Y-133540500D01*
X102870000Y-117919500D02*
X123190000Y-117919500D01*
X102870000Y-133540500D02*
X102870000Y-117919500D01*
X123190000Y-133540500D02*
X102870000Y-133540500D01*
X106680000Y-130810000D02*
G75*
G03*
X106680000Y-130810000I-1270000J0D01*
G01*
X121920000Y-130810000D02*
G75*
G03*
X121920000Y-130810000I-1270000J0D01*
G01*
D11*
X124420000Y-121170000D02*
X124920000Y-121170000D01*
X124420000Y-121170000D02*
X124420000Y-121670000D01*
X129570000Y-121160000D02*
X129070000Y-121160000D01*
X129570000Y-121160000D02*
X129570000Y-121660000D01*
X129570000Y-127760000D02*
X129070000Y-127760000D01*
X129570000Y-127760000D02*
X129570000Y-127260000D01*
X124430000Y-127740000D02*
X124930000Y-127740000D01*
X124430000Y-127740000D02*
X124430000Y-127240000D01*
D12*
X103135001Y-101875001D02*
X127945001Y-101875001D01*
X127945001Y-101875001D02*
X127945001Y-116175001D01*
X127945001Y-116175001D02*
X103135001Y-116175001D01*
X103135001Y-116175001D02*
X103135001Y-101875001D01*
X108945001Y-112825001D02*
G75*
G03*
X108945001Y-112825001I-250000J0D01*
G01*
D10*
X112268095Y-126452380D02*
X112268095Y-127261904D01*
X112315714Y-127357142D01*
X112363333Y-127404761D01*
X112458571Y-127452380D01*
X112649047Y-127452380D01*
X112744285Y-127404761D01*
X112791904Y-127357142D01*
X112839523Y-127261904D01*
X112839523Y-126452380D01*
X113268095Y-126547619D02*
X113315714Y-126500000D01*
X113410952Y-126452380D01*
X113649047Y-126452380D01*
X113744285Y-126500000D01*
X113791904Y-126547619D01*
X113839523Y-126642857D01*
X113839523Y-126738095D01*
X113791904Y-126880952D01*
X113220476Y-127452380D01*
X113839523Y-127452380D01*
X110815714Y-123960000D02*
X110720476Y-123912380D01*
X110577619Y-123912380D01*
X110434761Y-123960000D01*
X110339523Y-124055238D01*
X110291904Y-124150476D01*
X110244285Y-124340952D01*
X110244285Y-124483809D01*
X110291904Y-124674285D01*
X110339523Y-124769523D01*
X110434761Y-124864761D01*
X110577619Y-124912380D01*
X110672857Y-124912380D01*
X110815714Y-124864761D01*
X110863333Y-124817142D01*
X110863333Y-124483809D01*
X110672857Y-124483809D01*
X111482380Y-124436190D02*
X111482380Y-124912380D01*
X111149047Y-123912380D02*
X111482380Y-124436190D01*
X111815714Y-123912380D01*
X112149047Y-124531428D02*
X112910952Y-124531428D01*
X113863333Y-123912380D02*
X113387142Y-123912380D01*
X113339523Y-124388571D01*
X113387142Y-124340952D01*
X113482380Y-124293333D01*
X113720476Y-124293333D01*
X113815714Y-124340952D01*
X113863333Y-124388571D01*
X113910952Y-124483809D01*
X113910952Y-124721904D01*
X113863333Y-124817142D01*
X113815714Y-124864761D01*
X113720476Y-124912380D01*
X113482380Y-124912380D01*
X113387142Y-124864761D01*
X113339523Y-124817142D01*
X114291904Y-124007619D02*
X114339523Y-123960000D01*
X114434761Y-123912380D01*
X114672857Y-123912380D01*
X114768095Y-123960000D01*
X114815714Y-124007619D01*
X114863333Y-124102857D01*
X114863333Y-124198095D01*
X114815714Y-124340952D01*
X114244285Y-124912380D01*
X114863333Y-124912380D01*
X115815714Y-124912380D02*
X115244285Y-124912380D01*
X115530000Y-124912380D02*
X115530000Y-123912380D01*
X115434761Y-124055238D01*
X115339523Y-124150476D01*
X115244285Y-124198095D01*
X126486666Y-128392380D02*
X126486666Y-129106666D01*
X126439047Y-129249523D01*
X126343809Y-129344761D01*
X126200952Y-129392380D01*
X126105714Y-129392380D01*
X127486666Y-129392380D02*
X126915238Y-129392380D01*
X127200952Y-129392380D02*
X127200952Y-128392380D01*
X127105714Y-128535238D01*
X127010476Y-128630476D01*
X126915238Y-128678095D01*
D13*
X105657506Y-100188292D02*
X105657506Y-100998192D01*
X105705148Y-101093474D01*
X105752789Y-101141116D01*
X105848071Y-101188757D01*
X106038636Y-101188757D01*
X106133918Y-101141116D01*
X106181560Y-101093474D01*
X106229201Y-100998192D01*
X106229201Y-100188292D01*
X107229666Y-101188757D02*
X106657971Y-101188757D01*
X106943819Y-101188757D02*
X106943819Y-100188292D01*
X106848536Y-100331215D01*
X106753254Y-100426498D01*
X106657971Y-100474139D01*
M02*
