%TF.GenerationSoftware,KiCad,Pcbnew,5.1.7+dfsg1-1~bpo10+1*%
%TF.CreationDate,2020-11-10T14:05:56+09:00*%
%TF.ProjectId,MPU6050+ESP01_1,4d505536-3035-4302-9b45-535030315f31,rev?*%
%TF.SameCoordinates,Original*%
%TF.FileFunction,Copper,L1,Top*%
%TF.FilePolarity,Positive*%
%FSLAX46Y46*%
G04 Gerber Fmt 4.6, Leading zero omitted, Abs format (unit mm)*
G04 Created by KiCad (PCBNEW 5.1.7+dfsg1-1~bpo10+1) date 2020-11-10 14:05:56*
%MOMM*%
%LPD*%
G01*
G04 APERTURE LIST*
%TA.AperFunction,ComponentPad*%
%ADD10C,2.000000*%
%TD*%
%TA.AperFunction,ComponentPad*%
%ADD11C,2.020000*%
%TD*%
%TA.AperFunction,ComponentPad*%
%ADD12C,1.575000*%
%TD*%
%TA.AperFunction,ComponentPad*%
%ADD13R,1.575000X1.575000*%
%TD*%
%TA.AperFunction,ViaPad*%
%ADD14C,2.000000*%
%TD*%
%TA.AperFunction,Conductor*%
%ADD15C,0.500000*%
%TD*%
G04 APERTURE END LIST*
D10*
%TO.P,U2,8*%
%TO.N,Net-(U2-Pad8)*%
X104140000Y-119380000D03*
%TO.P,U2,7*%
%TO.N,Net-(U2-Pad7)*%
X106680000Y-119380000D03*
%TO.P,U2,6*%
%TO.N,Net-(U2-Pad6)*%
X109220000Y-119380000D03*
%TO.P,U2,5*%
%TO.N,Net-(U2-Pad5)*%
X111760000Y-119380000D03*
%TO.P,U2,4*%
%TO.N,Net-(U1-Pad2)*%
X114300000Y-119380000D03*
%TO.P,U2,3*%
%TO.N,Net-(U1-Pad3)*%
X116840000Y-119380000D03*
%TO.P,U2,2*%
%TO.N,GND*%
X119380000Y-119380000D03*
%TO.P,U2,1*%
%TO.N,+3V3*%
X121920000Y-119380000D03*
%TD*%
D11*
%TO.P,J1,2*%
%TO.N,+3V3*%
X125730000Y-124460000D03*
%TO.P,J1,1*%
%TO.N,GND*%
X128270000Y-124460000D03*
%TD*%
D12*
%TO.P,U1,8*%
%TO.N,+3V3*%
X104405001Y-112835001D03*
%TO.P,U1,7*%
%TO.N,Net-(U1-Pad7)*%
X104405001Y-110295001D03*
%TO.P,U1,6*%
%TO.N,+3V3*%
X104405001Y-107755001D03*
%TO.P,U1,5*%
%TO.N,Net-(U1-Pad5)*%
X104405001Y-105215001D03*
D13*
%TO.P,U1,4*%
%TO.N,GND*%
X106945001Y-105215001D03*
D12*
%TO.P,U1,3*%
%TO.N,Net-(U1-Pad3)*%
X106945001Y-107755001D03*
%TO.P,U1,2*%
%TO.N,Net-(U1-Pad2)*%
X106945001Y-110295001D03*
D13*
%TO.P,U1,1*%
%TO.N,Net-(U1-Pad1)*%
X106945001Y-112835001D03*
%TD*%
D14*
%TO.N,*%
X120650000Y-130810000D03*
X101600000Y-100330000D03*
X105410000Y-130810000D03*
%TD*%
D15*
%TO.N,+3V3*%
X121920000Y-123190000D02*
X121920000Y-119380000D01*
X101600000Y-123190000D02*
X121920000Y-123190000D01*
X104405001Y-107755001D02*
X101794999Y-107755001D01*
X101794999Y-107755001D02*
X101600000Y-107950000D01*
X101794999Y-112835001D02*
X101600000Y-113030000D01*
X104405001Y-112835001D02*
X101794999Y-112835001D01*
X101600000Y-107950000D02*
X101600000Y-113030000D01*
X101600000Y-113030000D02*
X101600000Y-123190000D01*
X125730000Y-119380000D02*
X121920000Y-119380000D01*
X125730000Y-124460000D02*
X125730000Y-119380000D01*
%TO.N,GND*%
X106945001Y-105215001D02*
X112835001Y-105215001D01*
X119380000Y-111760000D02*
X119380000Y-119380000D01*
X112835001Y-105215001D02*
X119380000Y-111760000D01*
X119380000Y-117965787D02*
X119380000Y-119380000D01*
X120505787Y-116840000D02*
X119380000Y-117965787D01*
X128270000Y-124460000D02*
X128270000Y-116840000D01*
X128270000Y-116840000D02*
X120505787Y-116840000D01*
%TO.N,Net-(U1-Pad3)*%
X106945001Y-107755001D02*
X111565001Y-107755001D01*
X116840000Y-113030000D02*
X116840000Y-119380000D01*
X111565001Y-107755001D02*
X116840000Y-113030000D01*
%TO.N,Net-(U1-Pad2)*%
X106945001Y-110295001D02*
X110295001Y-110295001D01*
X114300000Y-114300000D02*
X114300000Y-119380000D01*
X110295001Y-110295001D02*
X114300000Y-114300000D01*
%TD*%
M02*
